<?xml version="1.0" encoding="UTF-8" ?>
<!DOCTYPE svg PUBLIC "-//W3C//DTD SVG 1.1//EN" "http://www.w3.org/Graphics/SVG/1.1/DTD/svg11.dtd">
<svg width="1203pt" height="316pt" viewBox="0 0 1203 316" version="1.1" xmlns="http://www.w3.org/2000/svg">
<g id="#818285ff">
<path fill="#818285" opacity="1.00" d=" M 964.38 23.07 C 1000.15 19.70 1036.41 19.40 1071.98 25.00 C 1098.29 29.31 1124.78 36.79 1146.99 52.02 C 1159.11 60.42 1169.64 71.56 1175.86 85.06 C 1182.38 98.94 1183.94 114.83 1181.47 129.89 C 1178.19 150.37 1168.79 169.33 1157.40 186.46 C 1136.44 217.54 1108.83 243.52 1079.47 266.56 C 1066.03 277.01 1052.14 286.90 1037.84 296.14 C 1056.58 280.56 1074.59 263.90 1089.72 244.72 C 1100.92 230.57 1110.78 215.18 1117.30 198.30 C 1122.93 183.64 1125.93 167.60 1123.44 151.95 C 1121.05 135.93 1112.62 121.14 1100.77 110.22 C 1083.39 94.13 1060.68 85.24 1037.95 79.78 C 1016.78 74.79 995.01 72.79 973.29 72.47 C 971.58 71.74 971.21 69.72 970.58 68.17 C 965.69 53.75 962.37 38.34 964.38 23.07 Z" />
<path fill="#818285" opacity="1.00" d=" M 939.42 73.30 C 949.80 72.70 960.21 72.18 970.62 72.40 C 973.64 73.95 974.16 77.66 975.55 80.45 C 986.40 105.44 1001.62 128.28 1018.09 149.88 C 1034.09 170.67 1051.52 190.34 1069.89 209.07 C 1073.45 212.48 1076.64 216.29 1080.53 219.34 C 1080.52 219.56 1080.48 220.00 1080.46 220.22 C 1060.58 202.59 1040.63 184.95 1021.67 166.29 C 992.21 137.31 963.98 106.87 939.55 73.49 L 939.42 73.30 Z" />
<path fill="#818285" opacity="1.00" d=" M 20.05 115.71 C 34.35 116.01 48.85 114.67 62.94 117.70 C 72.22 119.61 80.52 125.34 85.84 133.14 C 94.84 145.69 96.75 162.19 93.84 177.07 C 91.39 189.58 83.22 201.19 71.44 206.47 C 64.17 209.94 55.96 210.21 48.05 210.37 C 38.71 210.41 29.37 210.38 20.03 210.38 C 20.10 178.82 20.06 147.27 20.05 115.71 M 38.09 133.20 C 38.13 153.03 38.14 172.87 38.09 192.70 C 46.50 192.52 55.35 193.62 63.32 190.29 C 71.71 186.38 76.10 177.01 76.65 168.13 C 77.50 158.07 75.71 146.45 67.38 139.75 C 59.18 133.17 48.11 132.91 38.09 133.20 Z" />
<path fill="#818285" opacity="1.00" d=" M 140.91 115.71 C 147.01 115.71 153.11 115.72 159.21 115.71 C 171.38 147.26 183.46 178.84 195.64 210.38 C 189.38 210.39 183.11 210.38 176.84 210.39 C 174.40 203.97 171.95 197.56 169.53 191.13 C 156.64 190.71 143.73 190.97 130.84 191.10 C 128.36 197.55 125.78 203.96 123.23 210.39 C 116.96 210.38 110.69 210.39 104.42 210.39 C 116.65 178.86 128.72 147.26 140.91 115.71 M 137.63 173.35 C 145.99 173.35 154.34 173.35 162.69 173.35 C 158.43 162.59 154.41 151.73 150.15 140.97 C 146.06 151.80 141.87 162.58 137.63 173.35 Z" />
<path fill="#818285" opacity="1.00" d=" M 202.18 115.71 C 208.41 115.71 214.65 115.70 220.88 115.72 C 228.74 137.97 236.54 160.25 244.53 182.45 C 252.90 160.32 260.55 137.92 268.67 115.70 C 274.90 115.72 281.12 115.71 287.34 115.71 C 275.91 147.25 264.60 178.83 253.20 210.39 C 247.38 210.38 241.55 210.38 235.73 210.39 C 224.52 178.84 213.39 147.26 202.18 115.71 Z" />
<path fill="#818285" opacity="1.00" d=" M 300.28 115.71 C 306.31 115.71 312.34 115.72 318.37 115.71 C 318.37 147.27 318.35 178.83 318.38 210.39 C 312.34 210.38 306.30 210.39 300.26 210.38 C 300.32 178.82 300.29 147.27 300.28 115.71 Z" />
<path fill="#818285" opacity="1.00" d=" M 338.50 115.71 C 353.09 116.04 367.92 114.60 382.27 117.88 C 391.40 119.90 399.39 125.75 404.62 133.43 C 413.81 146.52 415.50 163.75 411.94 179.04 C 408.48 194.22 395.82 207.26 380.15 209.43 C 366.33 211.16 352.37 210.09 338.50 210.39 C 338.52 178.83 338.50 147.27 338.50 115.71 M 356.57 133.19 C 356.59 153.03 356.59 172.87 356.57 192.70 C 364.85 192.51 373.51 193.60 381.40 190.49 C 390.21 186.80 394.64 177.03 395.26 167.96 C 396.05 158.01 394.26 146.57 386.10 139.89 C 377.91 133.12 366.67 132.93 356.57 133.19 Z" />
<path fill="#818285" opacity="1.00" d=" M 498.17 115.71 C 504.19 115.71 510.21 115.71 516.24 115.71 C 516.22 138.13 516.27 160.54 516.22 182.96 C 515.97 190.89 515.53 199.71 509.91 205.91 C 503.37 213.21 492.34 214.14 483.41 211.46 C 476.39 209.44 470.68 204.54 466.04 199.07 C 470.44 195.03 474.85 190.99 479.16 186.85 C 482.69 190.49 486.58 194.55 491.89 195.17 C 494.41 195.55 496.68 193.58 497.29 191.24 C 498.53 186.61 498.10 181.75 498.18 177.02 C 498.17 156.58 498.19 136.15 498.17 115.71 Z" />
<path fill="#818285" opacity="1.00" d=" M 573.98 210.37 C 586.23 178.84 598.27 147.23 610.50 115.69 C 616.60 115.73 622.70 115.70 628.81 115.72 C 640.93 147.28 653.02 178.85 665.21 210.38 C 658.95 210.39 652.69 210.37 646.43 210.40 C 643.95 203.98 641.49 197.56 639.11 191.10 C 634.74 190.83 630.36 190.88 625.99 191.09 C 617.45 191.09 608.92 190.66 600.39 191.12 C 597.95 197.56 595.30 203.93 592.84 210.37 C 586.55 210.40 580.26 210.39 573.98 210.37 M 619.81 141.02 C 615.49 151.75 611.48 162.60 607.20 173.35 C 615.55 173.35 623.89 173.35 632.24 173.35 C 628.06 162.59 623.89 151.82 619.81 141.02 Z" />
<path fill="#818285" opacity="1.00" d=" M 678.88 115.72 C 689.63 115.89 700.42 115.20 711.13 116.40 C 717.59 117.06 724.18 119.42 728.63 124.34 C 734.74 130.88 736.21 140.59 734.69 149.14 C 733.46 156.61 728.45 163.28 721.68 166.63 C 714.14 170.60 705.34 170.10 697.08 170.37 C 697.16 183.70 697.09 197.03 697.12 210.37 C 691.04 210.40 684.95 210.40 678.88 210.37 C 678.89 178.82 678.88 147.27 678.88 115.72 M 697.09 133.40 C 697.13 139.81 697.13 146.22 697.08 152.63 C 702.35 152.58 707.91 153.22 712.89 151.09 C 719.41 148.54 719.13 137.84 712.95 135.04 C 707.97 132.87 702.37 133.52 697.09 133.40 Z" />
<path fill="#818285" opacity="1.00" d=" M 752.68 115.71 C 763.83 115.92 775.03 115.11 786.12 116.56 C 792.69 117.39 799.26 120.22 803.42 125.54 C 808.69 132.07 809.69 141.03 808.44 149.09 C 807.16 156.74 801.99 163.56 794.96 166.85 C 787.49 170.62 778.87 170.10 770.74 170.36 C 770.78 183.70 770.71 197.04 770.78 210.38 C 764.74 210.39 758.71 210.39 752.68 210.39 C 752.69 178.83 752.68 147.27 752.68 115.71 M 770.75 133.40 C 770.75 139.81 770.75 146.23 770.74 152.64 C 776.15 152.55 781.89 153.29 786.95 150.94 C 793.10 148.13 792.76 137.96 786.80 135.10 C 781.78 132.86 776.09 133.52 770.75 133.40 Z" />
<path fill="#818285" opacity="1.00" d=" M 826.40 210.39 C 826.44 178.83 826.42 147.27 826.42 115.71 C 832.48 115.71 838.54 115.72 844.60 115.70 C 844.59 141.57 844.61 167.43 844.59 193.30 C 853.32 193.29 862.05 193.29 870.79 193.30 C 870.75 198.99 870.74 204.69 870.79 210.38 C 855.99 210.39 841.20 210.38 826.40 210.39 Z" />
<path fill="#818285" opacity="1.00" d=" M 884.43 210.39 C 884.46 178.83 884.44 147.27 884.44 115.71 C 901.70 115.72 918.96 115.71 936.22 115.71 C 936.22 121.61 936.21 127.50 936.22 133.40 C 924.98 133.40 913.75 133.40 902.51 133.40 C 902.52 139.10 902.53 144.81 902.51 150.51 C 913.74 150.51 924.98 150.51 936.22 150.51 C 936.21 156.27 936.22 162.04 936.22 167.81 C 924.99 167.80 913.76 167.81 902.53 167.80 C 902.50 176.10 902.54 184.40 902.51 192.70 C 913.74 192.72 924.98 192.71 936.22 192.71 C 936.22 198.60 936.21 204.49 936.22 210.39 C 918.96 210.39 901.69 210.39 884.43 210.39 Z" />
</g>
<g id="#25aae1ff">
<path fill="#25aae1" opacity="1.00" d=" M 802.53 58.02 C 838.12 46.22 874.54 36.91 911.44 30.25 C 919.85 45.18 929.35 59.45 939.42 73.30 L 939.55 73.49 C 895.75 76.31 852.45 85.08 810.47 97.70 C 801.53 86.78 798.54 71.53 802.53 58.02 Z" />
<path fill="#25aae1" opacity="1.00" d=" M 355.34 238.85 C 363.22 239.23 372.01 237.44 379.01 242.04 C 386.63 247.26 385.64 260.17 377.30 264.21 C 380.27 265.50 383.37 266.90 385.48 269.47 C 388.99 273.54 389.48 279.56 387.67 284.49 C 385.30 290.73 378.56 294.44 372.08 294.57 C 366.48 294.67 360.89 294.56 355.29 294.60 C 355.35 276.02 355.26 257.44 355.34 238.85 M 360.83 244.54 C 360.84 250.44 360.83 256.35 360.84 262.25 C 365.50 262.11 370.73 262.62 374.74 259.76 C 378.92 256.81 379.86 249.60 375.44 246.45 C 371.12 243.65 365.69 244.72 360.83 244.54 M 360.84 267.74 C 360.84 274.87 360.84 282.00 360.84 289.14 C 366.55 288.90 372.84 289.94 378.05 287.05 C 383.32 284.13 384.51 276.08 380.06 271.92 C 375.04 266.90 367.30 268.02 360.84 267.74 Z" />
<path fill="#25aae1" opacity="1.00" d=" M 443.46 238.72 C 452.75 236.02 463.49 237.69 471.03 243.95 C 479.73 250.65 483.32 262.45 481.09 273.04 C 478.76 285.27 467.57 295.39 455.03 295.90 C 441.41 297.59 427.48 288.33 423.99 275.04 C 422.16 267.79 422.79 259.83 426.27 253.16 C 429.72 246.27 436.08 240.93 443.46 238.72 M 447.42 243.59 C 438.51 245.47 431.00 252.90 429.34 261.91 C 427.38 270.47 430.59 279.96 437.51 285.41 C 446.75 293.19 461.89 291.85 469.87 282.87 C 475.74 276.44 477.24 266.80 474.62 258.62 C 471.02 247.76 458.49 241.15 447.42 243.59 Z" />
<path fill="#25aae1" opacity="1.00" d=" M 518.86 240.75 C 518.31 238.08 521.50 239.01 522.98 238.83 C 530.51 239.16 538.40 237.98 545.62 240.64 C 554.52 244.29 556.49 257.38 549.95 264.05 C 545.87 268.00 539.92 268.69 534.52 268.83 C 541.30 277.36 547.90 286.02 554.61 294.61 C 552.24 294.60 549.89 294.60 547.54 294.60 C 541.28 286.49 535.02 278.38 528.73 270.29 C 527.88 268.69 526.08 268.67 524.51 268.52 C 524.49 277.22 524.50 285.92 524.51 294.62 C 522.61 294.60 520.72 294.59 518.84 294.57 C 518.88 276.63 518.83 258.69 518.86 240.75 M 524.49 244.52 C 524.50 250.77 524.51 257.01 524.49 263.26 C 530.96 262.87 538.07 264.54 544.00 261.18 C 549.86 257.73 548.84 247.72 542.43 245.47 C 536.62 243.75 530.45 244.81 524.49 244.52 Z" />
<path fill="#25aae1" opacity="1.00" d=" M 751.41 238.71 C 760.71 236.02 771.44 237.70 778.97 243.95 C 789.04 251.70 792.16 266.23 787.61 277.84 C 783.68 287.80 773.85 295.43 763.03 295.89 C 750.12 297.48 736.91 289.36 732.58 277.11 C 729.58 268.66 730.58 258.88 735.29 251.23 C 738.83 245.23 744.76 240.75 751.41 238.71 M 755.35 243.59 C 748.68 245.06 742.70 249.51 739.52 255.57 C 735.94 262.38 735.77 270.92 739.26 277.80 C 741.95 282.96 746.54 287.20 752.06 289.16 C 760.89 292.33 771.55 289.87 777.84 282.83 C 783.54 276.50 785.16 267.14 782.70 259.08 C 779.31 247.95 766.58 241.11 755.35 243.59 Z" />
<path fill="#25aae1" opacity="1.00" d=" M 826.73 238.99 C 834.16 238.84 841.64 238.53 849.04 239.40 C 854.47 239.92 859.46 243.75 861.04 249.03 C 862.60 254.47 861.59 261.19 856.95 264.87 C 852.88 268.15 847.47 268.66 842.45 268.84 C 849.25 277.35 855.81 286.05 862.56 294.61 C 860.19 294.60 857.83 294.60 855.48 294.60 C 849.22 286.51 842.98 278.40 836.69 270.34 C 835.82 268.76 834.04 268.66 832.46 268.51 C 832.43 277.21 832.44 285.91 832.46 294.61 C 830.54 294.60 828.63 294.60 826.72 294.60 C 826.74 276.07 826.72 257.53 826.73 238.99 M 832.43 244.52 C 832.45 250.77 832.45 257.02 832.43 263.26 C 838.93 262.86 846.09 264.56 852.03 261.12 C 857.75 257.63 856.78 247.81 850.46 245.52 C 844.64 243.72 838.42 244.83 832.43 244.52 Z" />
<path fill="#25aae1" opacity="1.00" d=" M 210.40 294.60 C 210.45 276.02 210.37 257.44 210.44 238.86 C 212.25 238.85 214.08 238.85 215.90 238.85 C 216.26 255.61 216.02 272.38 216.09 289.14 C 223.20 289.14 230.32 289.13 237.43 289.14 C 237.43 290.96 237.43 292.79 237.44 294.61 C 228.42 294.59 219.41 294.60 210.40 294.60 Z" />
<path fill="#25aae1" opacity="1.00" d=" M 291.56 242.64 C 292.30 241.10 293.14 239.61 294.03 238.14 C 296.32 241.60 297.84 245.47 299.61 249.21 C 306.71 264.35 313.70 279.55 320.85 294.68 C 318.81 294.70 316.76 294.71 314.72 294.72 C 311.77 288.60 308.83 282.47 305.93 276.32 C 297.97 276.29 290.01 276.29 282.05 276.32 C 279.19 282.47 276.22 288.57 273.34 294.71 C 271.21 294.70 269.08 294.70 266.96 294.68 C 275.21 277.36 283.36 259.98 291.56 242.64 M 284.61 270.77 C 290.88 270.77 297.15 270.76 303.42 270.77 C 300.26 264.14 297.19 257.47 294.05 250.84 C 290.93 257.50 287.81 264.15 284.61 270.77 Z" />
<path fill="#25aae1" opacity="1.00" d=" M 611.49 241.56 C 612.06 240.33 612.93 239.27 613.83 238.26 C 622.84 256.98 631.37 275.93 640.29 294.69 C 638.22 294.70 636.16 294.70 634.10 294.69 C 631.22 288.54 628.25 282.43 625.33 276.29 C 617.39 276.31 609.44 276.31 601.50 276.29 C 598.60 282.43 595.69 288.56 592.77 294.69 C 590.63 294.70 588.50 294.70 586.38 294.70 C 594.80 277.01 603.13 259.28 611.49 241.56 M 613.49 250.95 C 610.29 257.52 607.24 264.17 604.05 270.75 C 610.32 270.78 616.58 270.77 622.85 270.76 C 619.66 264.19 616.70 257.51 613.49 250.95 Z" />
<path fill="#25aae1" opacity="1.00" d=" M 669.18 238.86 C 679.31 238.86 689.45 238.86 699.59 238.85 C 699.60 240.70 699.62 242.56 699.65 244.41 C 695.51 244.42 691.37 244.41 687.24 244.42 C 687.30 261.15 687.24 277.87 687.27 294.60 C 685.31 294.60 683.36 294.60 681.42 294.61 C 681.46 277.87 681.41 261.14 681.45 244.41 C 677.32 244.42 673.20 244.42 669.08 244.40 C 669.10 242.55 669.13 240.70 669.18 238.86 Z" />
<path fill="#25aae1" opacity="1.00" d=" M 894.93 238.87 C 897.05 238.86 899.19 238.85 901.34 238.84 C 906.22 246.40 910.86 254.12 915.68 261.73 C 920.35 254.10 924.99 246.44 929.74 238.85 C 931.88 238.85 934.01 238.85 936.18 238.86 C 930.39 248.61 924.46 258.29 918.56 267.97 C 918.57 276.88 918.54 285.79 918.58 294.70 C 916.64 294.70 914.72 294.70 912.81 294.70 C 912.79 286.12 912.88 277.53 912.79 268.95 C 912.84 267.69 912.00 266.68 911.45 265.64 C 905.91 256.74 900.35 247.84 894.93 238.87 Z" />
</g>
</svg>
